# xmcd
#
# Track frame offsets:
#	150
#	15464
#	30457
#	45992
#	55363
#	67778
#	81634
#	95320
#	110822
#	124398
#	133851
#	149854
#	161877
#	178922
#	191165
#
# Disc length: 2950 seconds
#
# Revision: 0
# Processed by: cddbd v1.5.2PL0 Copyright (c) Steve Scherf et al.
# Submitted via: audiograbber 1.83.01
#
DISCID=e20b840f
DTITLE=Luke Powers - Picture Book
DYEAR=2006
DGENRE=Country
TTITLE0=Knoxville Girl
TTITLE1=Cece's Song
TTITLE2=Man Behind
TTITLE3=I Saw John Kennedy Today
TTITLE4=Northern Lights
TTITLE5=Mr Yeah Yeah Yeah
TTITLE6=Driving With My Demon In The Deep South
TTITLE7=Beautiful Lie
TTITLE8=Let The River Keep The Time
TTITLE9=Wishing On A Starry Night
TTITLE10=Goin' Back To The Mountain
TTITLE11=Cover Song (For SGT.Pepper)
TTITLE12=Living On Air
TTITLE13=Ghost Of The Cherokee
TTITLE14=Tommy's Goin' Home To Texas
EXTD=
EXTT0=
EXTT1=
EXTT2=
EXTT3=
EXTT4=
EXTT5=
EXTT6=
EXTT7=
EXTT8=
EXTT9=
EXTT10=
EXTT11=
EXTT12=
EXTT13=
EXTT14=
PLAYORDER=
